<?xml version="1.0" standalone="no"?><!DOCTYPE svg PUBLIC "-//W3C//DTD SVG 1.1//EN" "http://www.w3.org/Graphics/SVG/1.1/DTD/svg11.dtd"><svg t="1512530722971" class="icon" style="" viewBox="0 0 1024 1024" version="1.1" xmlns="http://www.w3.org/2000/svg" p-id="1544" xmlns:xlink="http://www.w3.org/1999/xlink" width="32" height="32"><defs><style type="text/css"></style></defs><path d="M442.3 756.8625a24.425 24.425 0 1 0 7.15-17.275 24.7375 24.7375 0 0 0-7.15 17.275z" p-id="1545" fill="#379ffa"></path><path d="M682.875 496.175V218.4a49.3 49.3 0 0 0-49.25-49.25h-333.75a49.3 49.3 0 0 0-49.25 49.25v587.2a49.3 49.3 0 0 0 49.25 49.25h166.8875v-42.2H299.875a7.0375 7.0375 0 0 1-7.0375-7.0375v-587.25a7.0375 7.0375 0 0 1 7.0375-7.0375h333.75a7.0375 7.0375 0 0 1 7.0375 7.0375v277.7875h42.2125zM925.2875 698.8625a21.1 21.1 0 0 0-29.8625-0.5625L725.9375 861.3625l-78.575-78.575a21.1125 21.1125 0 0 0-29.8625 29.8625l93.2375 93.2375a21.075 21.075 0 0 0 29.55 0.275L924.625 728.75a21.1 21.1 0 0 0 0.6125-29.8625z" p-id="1546" fill="#379ffa"></path><path d="M769.6625 520.9625c-138.75 0-251.5125 112.825-251.5125 251.525S630.975 1024 769.6625 1024 1021.2125 911.175 1021.2125 772.5 908.3875 520.9625 769.6625 520.9625z m0 460.8c-115.4125 0-209.3-93.8875-209.3-209.3125s93.8875-209.3 209.3-209.3S979.0375 657.0375 979.0375 772.5s-93.925 209.2625-209.375 209.2625z" p-id="1547" fill="#379ffa"></path><path d="M45 506.5625c0-256.05 208.2875-464.3375 464.3375-464.3375s464.4 208.2875 464.4 464.3375q0 12.825-0.675 25.5l42.15 2.3125c0.5125-9.2125 0.7375-18.4875 0.7375-27.8C1015.95 227.225 788.6875 0 509.35 0S2.7875 227.225 2.7875 506.5625s227.225 506.55 506.5625 506.55v-42.2125c-256.05 0-464.3375-208.325-464.3375-464.3375z" p-id="1548" fill="#379ffa"></path><path d="M405.2875 256.25l148.75 0 0 35-148.75 0 0-35Z" p-id="1549" fill="#379ffa"></path></svg>