<?xml version="1.0" standalone="no"?><!DOCTYPE svg PUBLIC "-//W3C//DTD SVG 1.1//EN" "http://www.w3.org/Graphics/SVG/1.1/DTD/svg11.dtd"><svg t="1512357383533" class="icon" style="" viewBox="0 0 1024 1024" version="1.1" xmlns="http://www.w3.org/2000/svg" p-id="1012" xmlns:xlink="http://www.w3.org/1999/xlink" width="24" height="24"><defs><style type="text/css"></style></defs><path d="M314.592978 233.220692c-35.655058 0-64.244186-29.106922-64.244186-64.72514L250.348792 100.809987c0-35.619242 28.589129-64.721047 64.244186-64.721047 36.023448 0 64.648392 29.101805 64.648392 64.721047l0 67.684542C379.24137 204.113771 350.616426 233.220692 314.592978 233.220692L314.592978 233.220692zM708.266036 233.220692c-35.651988 0-64.757886-29.106922-64.757886-64.72514L643.508149 100.809987c0-35.619242 29.106922-64.721047 64.757886-64.721047 35.583426 0 64.098877 29.101805 64.098877 64.721047l0 67.684542C772.364913 204.113771 743.849462 233.220692 708.266036 233.220692L708.266036 233.220692zM807.548226 856.530824l-98.365308 0 0-98.293677 98.365308 0L807.548226 856.530824 807.548226 856.530824zM807.548226 692.563402l-98.365308 0 0-98.765421 98.365308 0L807.548226 692.563402 807.548226 692.563402zM807.548226 528.563234l-98.365308 0 0-98.764398 98.365308 0L807.548226 528.563234 807.548226 528.563234zM643.508149 856.530824l-98.287537 0 0-98.293677 98.287537 0L643.508149 856.530824 643.508149 856.530824zM643.508149 692.563402l-98.287537 0 0-98.765421 98.287537 0L643.508149 692.563402 643.508149 692.563402zM643.508149 528.563234l-98.287537 0 0-98.764398 98.287537 0L643.508149 528.563234 643.508149 528.563234zM479.545844 856.530824l-98.289584 0 0-98.293677 98.289584 0L479.545844 856.530824 479.545844 856.530824zM479.545844 692.563402l-98.289584 0 0-98.765421 98.289584 0L479.545844 692.563402 479.545844 692.563402zM479.545844 528.563234l-98.289584 0 0-98.764398 98.289584 0L479.545844 528.563234 479.545844 528.563234zM316.059376 856.530824l-98.289584 0 0-98.293677 98.289584 0L316.059376 856.530824 316.059376 856.530824zM316.059376 692.563402l-98.289584 0 0-98.765421 98.289584 0L316.059376 692.563402 316.059376 692.563402zM316.059376 528.563234l-98.289584 0 0-98.764398 98.289584 0L316.059376 528.563234 316.059376 528.563234zM872.669386 364.088252 152.060231 364.088252l0 558.112224L872.669386 922.200476 872.669386 364.088252 872.669386 364.088252zM872.669386 987.910037 152.060231 987.910037c-36.096103 0-65.710584-29.578666-65.710584-65.709561L86.349647 200.088084c0-36.09508 29.614481-65.196885 65.710584-65.196885l65.709561 0 0 32.618908c0 54.142108 43.598984 98.325399 98.289584 98.325399 54.177923 0 98.289584-44.147476 98.289584-98.325399l0-32.618908 196.619076 0 0 32.618908c0 54.142108 43.562145 98.325399 98.251721 98.325399 54.177923 0 98.365308-44.147476 98.365308-98.325399l0-32.618908 65.12116 0c36.132942 0 65.7464 29.101805 65.7464 65.196885l0 722.112392C938.415786 958.332395 908.800281 987.910037 872.669386 987.910037L872.669386 987.910037zM872.669386 987.910037" p-id="1013" fill="#1296db"></path></svg>